<?xml version="1.0" encoding="UTF-8" standalone="no"?>
<!DOCTYPE svg PUBLIC "-//W3C//DTD SVG 1.1//EN" "http://www.w3.org/Graphics/SVG/1.1/DTD/svg11.dtd">
<svg width="100%" height="100%" viewBox="0 0 2000 2000" version="1.1" xmlns="http://www.w3.org/2000/svg" xmlns:xlink="http://www.w3.org/1999/xlink" xml:space="preserve" xmlns:serif="http://www.serif.com/" style="fill-rule:evenodd;clip-rule:evenodd;stroke-linejoin:round;stroke-miterlimit:2;">
    <g transform="matrix(0.794315,0,0,0.794315,17.0301,-75.1897)">
        <g transform="matrix(4.16667,0,0,4.16667,534.085,495.211)">
            <path d="M0,48.473C-2.579,48.473 -5.431,47.872 -6.789,46.674C-8.147,45.474 -8.826,43.494 -8.826,40.733L-8.826,0L0,0L0,48.473Z" style="fill:rgb(154,191,60);fill-rule:nonzero;"/>
        </g>
        <g transform="matrix(4.16667,0,0,4.16667,590.095,601.091)">
            <path d="M0,5.716C1.129,6.554 2.375,7.21 3.734,7.685C5.091,8.159 6.334,8.624 7.467,9.075C8.207,9.372 8.86,9.69 9.446,10.026C9.632,10.096 9.816,10.167 9.999,10.245C11.87,11.059 13.594,12.314 15.169,14.005C16.372,15.298 17.462,16.8 18.44,18.5C19.678,16.747 20.296,14.576 20.296,11.995C20.296,10.004 19.912,8.375 19.143,7.108C18.374,5.841 17.423,4.81 16.29,4.018C15.16,3.228 13.917,2.581 12.559,2.084C11.201,1.586 9.954,1.121 8.823,0.691C7.693,0.263 6.74,-0.201 5.972,-0.7C5.203,-1.198 4.819,-1.853 4.819,-2.668C4.819,-4.705 6.132,-5.724 8.757,-5.724C10.385,-5.724 11.99,-5.496 13.575,-5.046C15.16,-4.592 16.472,-4.161 17.515,-3.755L19.48,-10.137C18.305,-10.815 16.676,-11.426 14.595,-11.969C12.513,-12.513 10.184,-12.784 7.603,-12.784C3.844,-12.784 0.972,-11.903 -1.021,-10.137C-3.011,-8.371 -4.006,-5.814 -4.006,-2.465C-4.006,-0.43 -3.623,1.236 -2.853,2.525C-2.084,3.815 -1.133,4.878 0,5.716" style="fill:rgb(154,191,60);fill-rule:nonzero;"/>
        </g>
        <g transform="matrix(4.16667,0,0,4.16667,619.791,670.957)">
            <path d="M0,6.294C1.187,6.294 2.292,6.219 3.321,6.073C2.109,3.964 0.761,2.38 -0.728,1.333C-2.514,0.077 -4.523,0 -6.751,1.11C-8.254,1.857 -9.28,2.917 -9.843,4.285C-8.929,4.678 -7.902,5.042 -6.754,5.376C-4.649,5.987 -2.398,6.294 0,6.294" style="fill:rgb(65,148,68);fill-rule:nonzero;"/>
        </g>
        <g transform="matrix(4.16667,0,0,4.16667,803.865,631.037)">
            <path d="M0,-17.722C-1.944,-16.754 -3.104,-15.269 -3.471,-13.266C-3.84,-11.264 -3.196,-8.6 -1.544,-5.278C-0.878,-3.942 -0.141,-2.766 0.667,-1.752C1.473,-0.739 2.333,0.073 3.241,0.681C3.344,0.75 3.445,0.813 3.548,0.873L3.548,-18.47C2.435,-18.595 1.252,-18.346 0,-17.722" style="fill:rgb(65,148,68);fill-rule:nonzero;"/>
        </g>
        <g transform="matrix(4.16667,0,0,4.16667,819.62,577.738)">
            <path d="M0,22.438C-1.438,22.323 -2.814,21.993 -4.123,21.436C-6.013,20.633 -7.748,19.384 -9.322,17.693C-9.472,17.53 -9.621,17.362 -9.768,17.194C-10.243,18.006 -10.833,18.734 -11.537,19.366C-12.648,20.36 -14.039,20.859 -15.713,20.859C-17.612,20.859 -18.893,20.248 -19.547,19.025C-20.205,17.802 -20.532,15.814 -20.532,13.051L-20.532,-6.229L-29.358,-6.229L-29.358,14.885C-29.358,17.555 -29.12,19.773 -28.645,21.536C-28.17,23.301 -27.479,24.705 -26.574,25.747C-25.67,26.788 -24.539,27.536 -23.18,27.987C-21.822,28.438 -20.284,28.667 -18.564,28.667C-16.03,28.667 -13.836,28.099 -11.979,26.969C-10.123,25.838 -8.675,24.411 -7.634,22.691L-7.361,22.691L-5.801,27.714L0.853,27.714C0.49,26.266 0.218,24.65 0.038,22.86C0.023,22.718 0.013,22.58 0,22.438" style="fill:rgb(154,191,60);fill-rule:nonzero;"/>
        </g>
        <g transform="matrix(4.16667,0,0,4.16667,466.625,653.055)">
            <path d="M0,-14.665C-0.656,-16.882 -1.641,-18.772 -2.953,-20.333C-4.266,-21.894 -5.918,-23.105 -7.908,-23.965C-9.901,-24.825 -12.253,-25.255 -14.969,-25.255C-18.334,-25.255 -21.195,-24.567 -23.562,-23.204C-22.912,-22.889 -22.259,-22.536 -21.601,-22.133C-19.416,-20.795 -17.714,-19.295 -16.478,-17.64C-16.004,-17.737 -15.5,-17.787 -14.969,-17.787C-12.481,-17.787 -10.715,-16.826 -9.675,-14.902C-8.633,-12.978 -8.112,-10.455 -8.112,-7.333C-8.112,-3.71 -8.679,-1.063 -9.81,0.611C-10.94,2.284 -12.662,3.121 -14.969,3.121C-16.119,3.121 -17.118,2.887 -17.966,2.426C-19.688,5.037 -21.563,7.064 -23.597,8.507C-23.097,8.799 -22.578,9.064 -22.03,9.299C-20.039,10.158 -17.685,10.59 -14.969,10.59C-9.901,10.59 -5.975,9.041 -3.192,5.939C-0.407,2.84 0.983,-1.585 0.983,-7.333C0.983,-10.003 0.656,-12.448 0,-14.665" style="fill:rgb(154,191,60);fill-rule:nonzero;"/>
        </g>
        <g transform="matrix(4.16667,0,0,4.16667,360.359,656.015)">
            <path d="M0,-16.476C-1.238,-17.237 -2.487,-17.565 -3.747,-17.479C-4.905,-14.879 -5.486,-11.737 -5.486,-8.044C-5.486,-5.374 -5.158,-2.929 -4.502,-0.712C-4.316,-0.084 -4.102,0.514 -3.862,1.089C-2.464,0.042 -1.047,-1.648 0.381,-3.98C2.013,-6.643 2.888,-9.065 3.006,-11.251C3.123,-13.434 2.121,-15.177 0,-16.476" style="fill:rgb(65,148,68);fill-rule:nonzero;"/>
        </g>
        <g transform="matrix(4.16667,0,0,4.16667,222.707,693.118)">
            <path d="M0,-9.097C-1.272,-9.12 -2.382,-8.85 -3.34,-8.31L-3.34,0.023L5.486,0.023L5.486,-5.592C5.407,-5.767 5.329,-5.946 5.242,-6.117C4.235,-8.055 2.49,-9.052 0,-9.097" style="fill:rgb(65,148,68);fill-rule:nonzero;"/>
        </g>
        <g transform="matrix(4.16667,0,0,4.16667,293.93,559.968)">
            <path d="M0,16.437C-1.777,14.659 -3.731,13.515 -3.731,13.515C-3.731,13.515 -2.271,12.385 -0.547,10.659C1.18,8.933 7.875,-1.965 7.875,-1.965L-1.833,-1.965C-1.833,-1.965 -8.719,10.693 -9.571,11.546C-10.425,12.398 -11.608,12.496 -11.608,12.496L-11.608,-15.542L-20.434,-15.542L-20.434,15.603C-19.337,15.443 -18.18,15.371 -16.956,15.394C-14.242,15.445 -11.896,15.916 -9.921,16.812C-7.945,17.708 -6.317,18.948 -5.033,20.535C-3.749,22.12 -2.799,24.027 -2.184,26.254C-1.754,27.81 -1.491,29.473 -1.383,31.242L-0.95,31.979L9.166,31.979C9.166,31.979 1.779,18.215 0,16.437" style="fill:rgb(154,191,60);fill-rule:nonzero;"/>
        </g>
    </g>
    <g transform="matrix(1.16593,0,0,1.16593,402.282,-615.051)">
        <text x="356.562px" y="1178.8px" style="font-family:'Exo2-Bold', 'Exo 2';font-weight:700;font-size:127.739px;">RND</text>
        <text x="618.682px" y="1178.8px" style="font-family:'Exo2-BoldItalic', 'Exo 2';font-weight:700;font-style:italic;font-size:127.739px;">X</text>
        <text x="728.154px" y="1178.8px" style="font-family:'Exo2-Regular', 'Exo 2';font-size:127.739px;">LABS</text>
    </g>
    <g transform="matrix(1,0,0,1,-202.844,-34.7329)">
        <g transform="matrix(0.226872,0.007753,-0.007753,0.226872,498.106,499.049)">
            <path d="M1900,1014.55C1898.26,1014.96 1896.39,1015.4 1894.41,1015.87C1892.43,1016.34 1890.39,1016.96 1888.24,1017.55C1883.95,1018.78 1879.28,1020.03 1874.52,1021.66C1871.68,1022.6 1868.76,1023.56 1865.82,1024.58C1869.96,1019.97 1873.94,1015.44 1877.49,1011.25C1879.79,1008.54 1881.9,1005.98 1883.76,1003.63C1895.52,1007.28 1905.61,1010.03 1913.48,1012.04L1908.87,1012.65C1906.49,1013.04 1903.5,1013.76 1900,1014.55ZM1800.86,1055.91C1798.32,1057.44 1795.87,1059.11 1793.36,1060.67L1785.83,1065.38C1783.35,1067 1780.85,1068.59 1778.34,1070.16C1772.52,1073.84 1765.74,1078.32 1758.35,1083.53C1765.23,1075.96 1774.28,1066.12 1784.4,1055.2C1790.54,1048.59 1797.06,1041.57 1803.71,1034.41C1807.04,1030.84 1810.4,1027.24 1813.76,1023.63C1815.44,1021.83 1817.12,1020.03 1818.8,1018.23L1821.31,1015.54L1821.84,1015.01C1823.11,1013.74 1824.22,1012.64 1825.13,1011.78C1825.23,1011.66 1825.36,1011.56 1825.53,1011.58C1825.7,1011.6 1825.86,1011.72 1825.95,1011.89C1826.14,1012.26 1825.84,1012.66 1825.74,1013.01C1825.48,1013.67 1825.23,1014.31 1825,1014.91C1824.93,1015.08 1824.91,1015.13 1824.88,1015.19L1824.79,1015.38C1824.74,1015.48 1824.68,1015.58 1824.63,1015.68C1824.59,1015.76 1824.55,1015.84 1824.51,1015.91L1824.49,1015.93L1824.49,1015.94L1824.42,1016.15C1824.3,1016.49 1824.19,1016.83 1824.07,1017.17C1823.64,1018.46 1823.22,1019.72 1822.82,1020.94C1819.48,1030.99 1816.94,1038.61 1815.44,1043.12C1815.25,1043.95 1815.02,1044.77 1814.89,1045.47C1814.84,1046.09 1814.8,1046.67 1814.75,1047.22C1814.74,1047.31 1814.74,1047.38 1814.74,1047.46C1812.42,1048.75 1810.27,1050 1808.4,1051.22C1805.9,1052.8 1803.38,1054.37 1800.86,1055.91ZM1662.83,1173.49C1663.12,1172.28 1663.42,1171.09 1663.72,1169.86C1664.31,1167.47 1664.9,1165.04 1665.51,1162.6C1665.81,1161.37 1666.11,1160.15 1666.41,1158.91C1666.67,1157.96 1666.96,1157.01 1667.24,1156.06C1667.29,1156.21 1667.32,1156.36 1667.38,1156.51C1668.28,1159.06 1669.86,1161.1 1671.8,1162.58C1668.73,1166.2 1665.74,1169.84 1662.83,1173.49ZM1762.58,1001.38C1755,1011.88 1747.49,1022.45 1740.1,1033.11C1731.1,1045.64 1719.76,1061.78 1707.8,1079.93C1696.06,1097.81 1683.63,1117.54 1672.62,1137.93C1678.75,1118.8 1686.14,1099.42 1694.8,1081.8C1695.94,1079.52 1697.08,1077.24 1698.2,1074.99C1698.75,1073.84 1699.35,1072.76 1699.96,1071.67C1700.56,1070.59 1701.17,1069.5 1701.76,1068.43C1702.97,1066.28 1704.11,1064.11 1705.35,1062.04C1706.6,1060 1707.84,1057.97 1709.07,1055.97C1710.26,1053.94 1711.57,1052.08 1712.83,1050.2L1713.77,1048.8C1714.23,1048.12 1714.69,1047.45 1715.15,1046.78C1715.77,1045.91 1716.45,1045.06 1717.14,1044.23C1717.83,1043.38 1718.51,1042.55 1719.18,1041.71C1720.53,1040.05 1721.88,1038.4 1723.21,1036.76L1724.2,1035.54L1725.28,1034.33C1726,1033.52 1726.72,1032.72 1727.43,1031.93C1730.26,1028.79 1732.89,1025.57 1735.77,1022.69C1750.92,1007.53 1762.58,1001.38 1762.58,1001.38ZM1670.07,935.882C1670.21,935.925 1670.35,935.969 1670.5,936.021C1671.57,936.255 1672.52,936.539 1673.93,936.626C1674.27,936.648 1674.54,936.714 1674.93,936.7L1676.1,936.665C1676.81,936.7 1677.78,936.473 1678.65,936.336C1680.54,935.89 1682.71,934.906 1684.77,934.084C1691.61,931.303 1698.12,928.659 1704.32,926.141C1706.17,925.396 1707.97,924.67 1709.72,923.961C1710.04,923.84 1710.34,923.723 1710.64,923.608C1711.75,923.219 1712.65,922.838 1713.36,922.725C1713.49,922.81 1713.6,922.893 1713.73,922.978C1713.74,922.987 1713.75,922.996 1713.77,923.004C1713.79,923.092 1713.8,923.187 1713.77,923.283C1713.7,923.541 1713.46,923.709 1713.3,923.898C1712.98,924.236 1712.66,924.559 1712.36,924.868C1711.8,925.431 1711.36,925.825 1711.02,926.089C1708.28,929.449 1705.74,932.568 1703.3,935.561C1702.02,937.148 1700.76,938.702 1699.52,940.238C1697.55,942.736 1695.6,945.205 1693.65,947.668C1690.16,952.105 1686.69,956.553 1683.19,961.071L1683.18,961.066C1680,955.616 1675.94,948.285 1671.66,939.272C1671.13,938.167 1670.6,937.036 1670.07,935.882ZM1658.44,907.746C1657.32,904.793 1656.28,901.733 1655.17,898.64C1654.92,897.894 1654.67,897.145 1654.41,896.394L1654.05,895.492C1653.81,894.849 1653.56,894.202 1653.31,893.551C1652.32,890.889 1651.31,887.921 1650.32,884.71C1649.33,881.501 1648.36,878.052 1647.46,874.467C1647.01,872.675 1646.59,870.849 1646.19,869.007C1646.14,868.783 1646.06,868.535 1646.17,868.324C1646.27,868.118 1646.49,867.992 1646.69,868.012C1646.9,868.027 1647.03,868.208 1647.18,868.326L1647.63,868.719L1649.44,870.328C1652.31,872.851 1655.18,875.723 1657.99,878.232C1659.46,879.587 1660.88,880.93 1662.23,882.239C1662.9,882.886 1663.57,883.53 1664.23,884.172L1666.18,885.973L1667.11,886.841L1667.57,887.268L1668.69,888.233C1670.21,889.536 1671.74,890.84 1673.26,892.146C1674.79,893.452 1676.32,894.761 1677.86,896.075C1677.94,896.145 1678.02,896.209 1678.11,896.278C1677.87,896.671 1677.63,897.074 1677.4,897.463C1673.05,904.692 1668.97,911.456 1665.27,917.59C1664.46,918.986 1664.02,920.209 1663.74,921.327C1661.96,917.007 1660.19,912.477 1658.44,907.746ZM1682.08,917.282C1682.25,916.863 1682.51,916.507 1682.7,916.136C1683.55,914.643 1684.25,913.395 1684.81,912.414C1684.92,912.224 1684.95,912.18 1684.97,912.136C1685.68,910.909 1686.34,909.726 1686.97,908.558C1687.13,908.263 1687.29,907.973 1687.44,907.686L1687.56,907.468L1687.78,907.081C1687.92,906.82 1688.07,906.562 1688.21,906.305C1688.48,905.823 1688.74,905.369 1689,904.901C1690.12,905.78 1691.24,906.657 1692.37,907.547C1694.63,909.299 1696.9,911.086 1699.26,912.83C1698.94,912.963 1698.61,913.102 1698.29,913.234C1696.89,913.814 1695.52,914.384 1694.18,914.942C1693.54,915.215 1692.92,915.483 1692.3,915.745C1689.75,916.842 1687.42,917.847 1685.32,918.749C1684.77,918.951 1684.26,919.298 1683.69,919.313C1683.12,919.342 1682.61,919.039 1682.31,918.639C1682,918.231 1681.93,917.711 1682.08,917.282ZM1746.27,943.188C1740.54,945.892 1734.72,948.639 1728.67,951.492C1724.51,953.496 1720.24,955.552 1715.81,957.682C1714.21,958.45 1712.59,959.251 1710.83,960.154C1709.6,960.782 1708.38,961.408 1707.18,962.024C1706.57,962.332 1705.96,962.663 1705.34,962.952C1704.69,963.232 1703.92,962.832 1703.72,962.239C1703.6,961.949 1703.62,961.617 1703.76,961.355C1703.91,961.096 1704.11,960.875 1704.28,960.635C1704.63,960.16 1704.98,959.696 1705.31,959.242C1706.01,958.313 1706.66,957.431 1707.27,956.611C1708.32,955.215 1709.36,953.835 1710.38,952.473C1712.77,949.354 1715.13,946.275 1717.45,943.242C1720.42,939.38 1723.35,935.576 1726.22,931.836C1726.35,931.668 1726.48,931.504 1726.61,931.337C1731.61,934.412 1736.6,937.478 1741.55,940.522C1743.13,941.414 1744.7,942.3 1746.27,943.188ZM1754.07,987.231C1754.56,986.463 1755.22,985.483 1756.08,984.276C1757.79,981.871 1760.31,978.518 1763.52,974.414C1764.35,973.356 1765.19,972.289 1766.04,971.216L1767.38,969.533C1768.34,968.357 1769.31,967.178 1770.28,965.996C1772.13,963.775 1773.99,961.542 1775.84,959.313C1777.66,960.254 1779.48,961.195 1781.28,962.127C1782.52,962.763 1783.75,963.407 1784.99,964.037C1784.86,964.13 1784.73,964.222 1784.61,964.31L1784.54,964.368L1784.26,964.603L1783.71,965.069C1783.34,965.379 1782.97,965.686 1782.61,965.989C1776.78,970.863 1771.86,974.874 1770.11,976.1C1768.82,977.012 1767.35,978.211 1765.19,980.162C1764,981.226 1762.63,982.458 1761.1,983.837C1760.29,984.562 1759.43,985.325 1758.53,986.123C1758.07,986.533 1757.6,986.951 1757.12,987.379C1756.63,987.788 1756.11,988.323 1755.69,988.572C1754.75,989.166 1753.56,988.736 1753.52,988.267C1753.57,987.911 1753.85,987.631 1754.07,987.231ZM1715.58,1006.13C1715.15,1005.74 1714.73,1005.35 1714.31,1004.96C1713.87,1004.55 1713.42,1004.13 1712.98,1003.72C1712.55,1003.3 1712.16,1002.88 1711.76,1002.47C1710.75,1001.42 1709.76,1000.4 1708.79,999.399C1708.03,998.534 1707.29,997.686 1706.57,996.858C1705.86,996.023 1705.13,995.235 1704.47,994.418C1703.81,993.583 1703.17,992.768 1702.55,991.975C1701.93,991.182 1701.32,990.411 1700.73,989.662C1700.16,988.896 1699.63,988.12 1699.1,987.387C1698.55,986.593 1698.01,985.843 1697.49,985.113C1697.74,984.993 1697.98,984.875 1698.23,984.755C1700.45,983.667 1702.73,982.554 1705.05,981.417C1709.71,979.139 1714.56,976.767 1719.59,974.308C1730.4,969.035 1742.72,963.022 1755.97,956.559L1757.15,955.981L1757.4,955.86L1757.42,955.853L1757.5,955.822L1757.64,955.765L1757.9,955.665L1758.12,955.585C1758.18,955.523 1758.31,955.61 1758.21,955.723L1757.81,956.131L1757.73,956.208L1757.69,956.244L1757.66,956.268L1757.24,956.773C1752.85,961.968 1748.47,967.152 1744.12,972.313C1734.48,983.727 1724.94,995.035 1715.58,1006.13ZM1819.61,979.937C1822.15,981.007 1824.66,982.086 1827.14,983.142C1802.13,1010.03 1754.04,1061.75 1716.38,1102.25C1719.21,1097.67 1722.21,1092.88 1725.36,1087.95C1737.95,1068.17 1752.96,1046.08 1767.98,1024.82C1775.5,1014.2 1783.03,1003.79 1790.25,993.974C1793.96,988.959 1797.58,984.08 1801.05,979.387C1802.27,977.701 1803.14,975.1 1803.01,972.586C1808.6,975.202 1814.12,977.709 1819.61,979.937ZM1873.31,1000.28C1867.68,1004.37 1860.61,1009.79 1851.86,1016.76L1846.42,1021.54L1845.06,1022.73L1844.38,1023.33C1844.29,1023.39 1844.27,1023.39 1844.21,1023.42C1844,1023.51 1843.81,1023.58 1843.64,1023.63C1843.03,1023.91 1842.37,1024.24 1842.01,1024.31C1841.91,1024.32 1841.86,1024.37 1841.76,1024.31C1841.65,1024.24 1841.55,1023.92 1841.7,1023.66C1841.89,1023.28 1842.09,1022.89 1842.28,1022.5C1842.28,1022.64 1842.24,1022.84 1842.19,1023.05C1844.1,1017.2 1845.96,1011.49 1847.74,1006.05C1848.87,1002.53 1849.98,999.095 1851.05,995.77C1851.36,994.784 1851.7,993.77 1851.98,992.834C1859.46,995.595 1866.6,998.07 1873.31,1000.28ZM979.004,820.672L976.542,816.178C974.859,813.203 973.389,810.13 971.823,807.107C968.855,800.987 966.015,794.826 963.558,788.552C960.995,782.316 958.867,775.962 956.827,769.629C954.951,763.252 953.154,756.888 951.822,750.478C950.361,744.087 949.355,737.662 948.478,731.415C948.312,729.835 948.146,728.258 947.981,726.685C947.823,725.112 947.617,723.548 947.545,721.971C947.357,718.824 947.074,715.701 947.048,712.574C946.671,700.088 947.389,687.813 949.065,676.038C952.47,652.472 959.532,631.005 968.288,613.012C972.66,604.003 977.444,595.841 982.343,588.559C987.258,581.281 992.367,574.962 997.245,569.433C1007.28,558.175 1018.66,548.289 1031.13,540.215L1035.84,537.244L1040.68,534.509C1042.28,533.556 1043.95,532.755 1045.6,531.927C1047.26,531.125 1048.9,530.2 1050.57,529.492C1057.21,526.447 1064.13,523.897 1071.22,521.925C1079.27,519.619 1088.68,517.825 1099.09,517.061C1109.49,516.327 1120.94,516.749 1132.65,519.161C1144.34,521.585 1156.33,525.932 1167.17,533.04C1169.91,534.768 1172.51,536.759 1175.1,538.805C1176.34,539.911 1177.59,541.024 1178.84,542.142C1179.46,542.708 1180.12,543.233 1180.72,543.833L1182.49,545.681C1187.34,550.474 1191.61,556.142 1195.52,562.251C1199.49,568.329 1202.74,575.144 1205.59,582.28C1208.48,589.408 1210.64,597.052 1212.31,604.926L1212.93,607.89L1213.23,609.377L1213.46,610.884C1213.78,612.896 1214.09,614.913 1214.41,616.935C1214.83,621.018 1215.36,625.113 1215.52,629.274L1215.71,632.39C1215.77,633.431 1215.75,634.477 1215.77,635.522C1215.77,637.612 1215.88,639.709 1215.81,641.808C1215.74,643.908 1215.68,646.012 1215.61,648.12C1215.5,650.238 1215.3,652.378 1215.16,654.512C1212.36,688.708 1200.26,723.071 1181.76,753.33C1172.6,768.528 1161.84,782.706 1150.21,795.769C1144.4,802.304 1138.29,808.494 1132.05,814.422C1128.95,817.402 1125.74,820.24 1122.57,823.077C1119.33,825.837 1116.13,828.612 1112.83,831.223C1106.28,836.502 1099.64,841.496 1092.89,846.097C1091.22,847.278 1089.53,848.402 1087.83,849.507C1086.13,850.603 1084.49,851.766 1082.75,852.797C1079.3,854.905 1075.88,856.993 1072.5,859.061C1071.65,859.573 1070.81,860.109 1069.96,860.596C1069.09,861.076 1068.23,861.555 1067.37,862.032C1065.65,862.988 1063.94,863.938 1062.24,864.883C1060.54,865.83 1058.84,866.771 1057.16,867.707C1055.48,868.645 1053.74,869.459 1052.04,870.334C1048.64,872.055 1045.27,873.755 1041.95,875.434C1038.56,876.99 1035.21,878.526 1031.91,880.042C1030.26,880.794 1028.63,881.567 1026.99,882.288C1026.62,882.441 1026.26,882.592 1025.89,882.746C1009.12,865.434 993.93,846.027 981.595,825.104L979.004,820.672ZM1978.04,1016.81C1982.16,1014.56 1982.92,1011.34 1982.22,1008.11C1980.75,1001.51 1973.23,995.969 1964.37,994.534C1929.39,988.39 1902.55,980.27 1881.27,972.873C1875.96,970.968 1870.96,969.199 1866.27,967.432C1861.64,965.516 1857.29,963.713 1853.18,962.011C1851.14,961.148 1849.15,960.31 1847.22,959.496C1846.25,959.086 1845.3,958.682 1844.36,958.284C1843.44,957.849 1842.54,957.42 1841.64,956.996C1838.07,955.289 1834.7,953.68 1831.51,952.152C1828.32,950.607 1825.31,949.145 1822.44,947.75C1819.62,946.239 1816.94,944.8 1814.36,943.417C1809.21,940.657 1804.47,938.119 1799.9,935.667C1797.58,934.339 1795.3,933.051 1793.01,931.785C1792.91,931.16 1792.66,930.462 1792.26,929.827C1791.57,928.733 1790.49,927.807 1789.54,927.472C1789.06,927.273 1788.68,927.269 1788.34,927.296L1787.3,927.416C1786.64,927.486 1785.98,927.557 1785.33,927.627C1783.45,926.638 1781.56,925.654 1779.61,924.668C1777.29,923.393 1774.91,922.102 1772.43,920.796C1770.47,919.635 1766.66,917.369 1760.98,914.001C1758.11,912.384 1754.94,910.22 1751.23,907.889C1747.55,905.535 1743.4,902.892 1738.81,899.959C1734.28,896.923 1729.39,893.471 1724.01,889.78C1722.66,888.854 1721.29,887.909 1719.9,886.945C1719.2,886.462 1718.49,885.973 1717.78,885.48C1717.09,884.962 1716.39,884.438 1715.68,883.91C1712.85,881.799 1709.91,879.607 1706.87,877.336C1705.34,876.183 1703.77,875.028 1702.18,873.846C1702.15,871.365 1700.96,870.614 1699.34,870.757C1699.02,870.784 1698.69,870.858 1698.36,870.952C1698.05,870.717 1697.75,870.488 1697.44,870.249C1694.27,867.699 1691,865.064 1687.63,862.346C1685.91,860.965 1684.17,859.574 1682.42,858.173C1681.55,857.471 1680.67,856.766 1679.79,856.059C1678.92,855.31 1678.05,854.558 1677.17,853.804C1675.42,852.289 1673.66,850.764 1671.88,849.227C1670.1,847.668 1668.3,845.988 1666.49,844.356C1659.24,837.762 1651.78,830.976 1644.11,823.999C1641.97,822.774 1639.77,821.515 1637.52,820.225C1636.95,819.903 1636.39,819.578 1635.81,819.252L1634.96,818.761C1634.7,818.629 1634.3,818.339 1634.24,818.428C1633.7,818.463 1633.15,818.499 1632.6,818.535C1630.4,818.691 1628.11,818.854 1625.73,819.022C1624.55,819.113 1623.34,819.205 1622.12,819.299C1621.51,819.348 1620.89,819.397 1620.27,819.446L1619.34,819.522L1618.87,819.56C1618.71,819.567 1618.65,819.639 1618.41,819.746C1617.99,819.964 1617.31,820.36 1616.82,820.681C1616.3,821.024 1616.21,821.112 1615.98,821.287C1615.57,821.594 1615.15,821.931 1614.72,822.319L1614.08,822.884L1613.43,823.549L1612.78,824.218C1612.56,824.449 1612.34,824.758 1612.12,825.025L1611.47,825.857C1611.25,826.136 1611.03,826.391 1610.82,826.776C1610.4,827.484 1609.98,828.195 1609.56,828.909C1609.33,829.218 1609.16,829.723 1608.99,830.195L1608.45,831.615C1608.13,832.619 1607.63,833.326 1607.59,834.843C1607.46,836.185 1607.32,837.532 1607.18,838.882L1607.07,839.896C1607.08,840.279 1607.21,840.807 1607.27,841.257L1607.72,844.068C1608.03,845.949 1608.34,847.834 1608.65,849.723C1609.05,851.715 1609.45,853.71 1609.86,855.709C1613.12,871.731 1617.45,889.04 1622.49,906.108C1627.79,923.912 1633.94,941.277 1640.59,956.61C1647.13,971.966 1654.25,985.254 1660.33,995.124C1665.54,1003.34 1671.3,1011.38 1677.89,1019.05C1678.42,1019.65 1678.94,1020.24 1679.47,1020.83C1658.85,1021.31 1631.55,1021.98 1596.47,1021.83C1589.6,1022.1 1582.72,1022.16 1575.84,1022.25L1565.53,1022.39L1555.22,1022.35C1531.86,1022.63 1482.85,1023.22 1431.65,1020.09C1406.06,1018.61 1379.91,1016.5 1356.14,1013.96C1332.38,1011.49 1311.08,1008.61 1294.97,1006.31C1280.87,1004.39 1266.9,1001.82 1252.97,999.009C1239.11,995.96 1225.28,992.714 1211.75,988.614C1195.8,983.906 1177.18,977.796 1157.13,969.503C1137.08,961.245 1115.64,950.671 1094.23,937.548C1083.58,930.974 1072.96,923.661 1062.6,915.587C1059.94,913.516 1057.3,911.4 1054.67,909.24L1057.43,907.966L1060.4,906.467L1066.34,903.464L1072.27,900.458C1074.24,899.436 1076.16,898.317 1078.11,897.25L1083.94,894.01C1085.87,892.905 1087.85,891.904 1089.73,890.706L1101.13,883.743C1103.04,882.61 1104.9,881.356 1106.78,880.125C1108.65,878.886 1110.54,877.682 1112.37,876.386C1141.96,856.127 1168.62,831.598 1190.92,803.292C1213.16,775.016 1231.04,742.761 1241.63,707.718C1245.21,696.324 1248.26,683.834 1250.3,670.406C1250.83,667.053 1251.19,663.626 1251.64,660.169C1251.94,656.687 1252.31,653.193 1252.51,649.594C1252.59,647.789 1252.68,645.974 1252.76,644.148C1252.8,643.235 1252.84,642.319 1252.88,641.401L1252.88,633.057C1252.9,631.188 1252.74,629.308 1252.67,627.419C1251.97,612.317 1249.76,596.548 1244.97,580.693C1244.36,578.714 1243.75,576.728 1243.14,574.734C1242.42,572.765 1241.69,570.789 1240.97,568.805L1239.86,565.828C1239.48,564.839 1239.02,563.866 1238.6,562.883C1237.74,560.922 1236.88,558.954 1236.02,556.979C1235.09,555.027 1234.06,553.102 1233.07,551.155L1231.56,548.24C1231.05,547.268 1230.45,546.335 1229.9,545.38C1228.76,543.483 1227.61,541.58 1226.47,539.671C1225.24,537.805 1223.93,535.973 1222.65,534.12L1220.71,531.347C1220.01,530.448 1219.29,529.568 1218.58,528.677C1217.14,526.904 1215.71,525.119 1214.25,523.356C1212.67,521.674 1211.1,519.987 1209.51,518.297C1208.71,517.465 1207.95,516.59 1207.1,515.795L1204.52,513.428C1202.78,511.866 1201.09,510.244 1199.28,508.741C1197.44,507.27 1195.63,505.744 1193.7,504.378L1190.83,502.286L1187.88,500.311C1185.93,498.96 1183.87,497.797 1181.84,496.552C1173.64,491.781 1164.91,487.924 1155.92,484.913C1146.91,481.982 1137.64,479.865 1128.29,478.638C1109.58,476.19 1090.58,476.999 1072.19,480.697C1062.98,482.538 1053.92,485.085 1045.11,488.375C1040.69,489.98 1036.36,491.841 1032.08,493.799C1027.9,495.869 1023.68,497.849 1019.67,500.197C1015.56,502.387 1011.68,504.933 1007.75,507.382C1003.96,510.025 1000.08,512.563 996.491,515.436L993.758,517.54L992.394,518.594L991.08,519.701C989.331,521.183 987.584,522.663 985.84,524.141C984.119,525.643 982.48,527.227 980.803,528.767L978.311,531.098L975.923,533.52C963.098,546.353 952.305,560.689 943.305,575.597C941.121,579.362 938.908,583.091 936.958,586.929C934.89,590.71 933.098,594.595 931.257,598.431C927.771,606.185 924.539,613.955 921.931,621.821C916.501,637.485 912.954,653.284 910.767,668.71C910.456,670.633 910.251,672.563 910.042,674.484C909.831,676.403 909.621,678.315 909.411,680.217C909.271,682.127 909.13,684.028 908.991,685.92C908.858,687.813 908.694,689.693 908.655,691.574C908.532,695.332 908.341,699.048 908.409,702.736C908.416,704.579 908.424,706.411 908.431,708.234C908.506,710.057 908.58,711.87 908.653,713.674C908.931,720.885 909.647,727.921 910.53,734.753C910.97,738.17 911.593,741.523 912.116,744.838C912.734,748.114 913.409,751.312 914.051,754.478C916.856,767.081 920.408,778.701 924.317,789.222C928.24,799.742 932.519,809.162 936.746,817.483C944.534,833.848 956.073,853.79 971.926,874.594C977.449,881.861 983.534,889.203 990.121,896.528C985.329,898.175 980.683,899.781 976.124,901.126C973.295,902.002 970.529,902.858 967.829,903.693C965.13,904.529 962.45,905.22 959.865,905.959C939.145,911.77 922.543,915.387 911.769,917.445C896.099,920.554 880.317,923.327 864.524,926.141C860.359,926.852 855.883,927.686 851.064,928.454C846.248,929.22 841.123,930.036 835.71,930.898C824.92,932.537 812.978,934.152 800.055,935.486C787.132,936.834 773.226,937.849 758.548,938.214C751.212,938.383 743.679,938.417 736.001,938.155C732.153,938.077 728.286,937.828 724.366,937.633C720.465,937.33 716.505,937.095 712.545,936.654C708.566,936.301 704.59,935.749 700.562,935.246C696.565,934.623 692.516,934.043 688.489,933.248C680.422,931.715 672.282,929.881 664.245,927.434C648.181,922.569 632.233,915.869 617.638,906.482C603.03,897.149 589.594,885.47 578.545,871.515C567.424,857.619 558.498,841.712 551.834,824.815C546.975,812.315 543.358,799.744 540.913,787.217C538.446,774.696 536.891,762.279 536.234,749.973C534.894,725.36 536.459,701.288 540.388,677.347L541.134,672.856L541.969,668.371C542.485,665.383 543.193,662.365 543.819,659.349C544.462,656.332 545.107,653.306 545.755,650.269C546.49,647.243 547.228,644.206 547.969,641.156C549.373,635.048 551.124,628.93 552.759,622.73C553.554,619.627 554.521,616.527 555.408,613.399C556.323,610.273 557.201,607.124 558.156,603.962C565.77,578.646 574.805,552.151 584.407,522.857C589.293,507.938 594.086,492.962 598.549,477.932C603.075,462.932 607.124,447.795 610.714,432.656C617.98,402.396 622.499,371.326 621.392,340.684C620.821,325.376 618.782,310.165 614.826,295.545C610.889,280.937 604.977,266.947 597.17,254.417C589.459,241.791 579.708,230.828 569.093,221.69C558.435,212.564 546.871,205.248 535.1,199.533C533.642,198.785 532.16,198.112 530.677,197.458C529.194,196.805 527.731,196.113 526.246,195.503C523.266,194.309 520.326,193.072 517.344,192.051C511.423,189.866 505.478,188.136 499.609,186.592C487.843,183.63 476.299,181.726 465.164,180.799C442.884,178.94 422.336,180.475 404.362,183.863C386.432,187.476 371.276,192.205 358.661,196.908C346.14,201.756 336.112,206.201 328.782,209.878C313.862,217.119 301.094,224.465 290.122,231.488C287.346,233.2 284.721,234.945 282.186,236.647C279.652,238.35 277.185,239.98 274.843,241.613C270.195,244.926 265.817,247.971 261.881,250.988C246.032,262.928 235.508,272.312 228.628,279.349C214.894,293.444 215.751,298.252 221.435,299.007C230.464,300.227 250.709,290.548 269.842,277.354C288.757,264.4 306.896,252.832 324.622,243.323C342.331,233.79 359.548,226.132 376.227,220.474C377.267,220.109 378.304,219.746 379.336,219.385C380.38,219.072 381.419,218.76 382.455,218.45C384.527,217.827 386.585,217.208 388.627,216.594C390.661,215.935 392.714,215.453 394.747,214.951C396.78,214.445 398.798,213.942 400.802,213.443C408.751,211.543 416.485,210.304 424.123,209.479C439.369,207.879 453.929,208.046 467.412,209.68C494.436,212.847 517.117,221.402 534.436,232.524C543.147,238.053 550.49,244.297 556.732,250.753C562.903,257.292 567.921,264.068 571.878,271.03C572.867,272.775 573.843,274.496 574.807,276.194C575.636,277.972 576.454,279.727 577.261,281.46C577.669,282.323 578.074,283.18 578.477,284.033C578.814,284.92 579.15,285.802 579.483,286.679C580.153,288.428 580.815,290.156 581.47,291.863C582.063,293.599 582.543,295.365 583.083,297.079C583.579,298.812 584.206,300.466 584.55,302.219C584.955,303.946 585.356,305.654 585.753,307.343C585.941,308.192 586.182,309.015 586.325,309.871C586.47,310.725 586.615,311.576 586.759,312.421C589.19,325.912 589.798,338.832 589.508,351.417C589.195,364.016 587.966,376.31 586.108,388.89C585.641,392.036 585.181,395.2 584.582,398.393C584.026,401.587 583.484,404.81 582.804,408.071C582.484,409.703 582.162,411.344 581.838,412.996C581.52,414.648 581.11,416.336 580.75,418.024C580.013,421.408 579.266,424.843 578.506,428.339C577.611,431.735 576.203,437.078 574.339,444.152C573.329,447.687 572.197,451.655 570.948,456.029C569.729,460.403 568.198,465.181 566.658,470.341C563.498,480.659 559.665,492.502 555.297,505.691C550.859,518.966 545.98,533.559 540.734,549.252C535.517,565.086 530.024,582.182 524.774,600.513C519.544,618.845 514.53,638.418 510.691,659.183C506.798,680.146 504.418,702.195 504.114,724.901C503.822,747.599 505.607,771.001 510.39,794.4C512.784,806.092 515.935,817.773 519.978,829.277C524.036,840.774 529.006,852.087 534.962,862.969C540.915,873.85 547.867,884.294 555.783,893.995C563.686,903.693 572.587,912.659 582.176,920.576C591.761,928.511 602.06,935.462 612.742,941.371C623.428,947.281 634.49,952.139 645.628,956.104C667.935,964.026 690.46,968.399 712.101,970.687C733.77,972.956 754.623,973.209 774.329,972.52C794.031,971.761 812.617,970.089 829.878,967.997C834.2,967.496 838.429,966.925 842.583,966.385C846.705,965.807 850.754,965.239 854.726,964.682C858.697,964.147 862.592,963.527 866.406,962.941C870.22,962.342 873.953,961.804 877.6,961.189C884.894,959.923 891.854,958.841 898.436,957.551C901.727,956.934 904.928,956.334 908.033,955.751C911.138,955.172 914.14,954.504 917.048,953.916C925.557,952.181 934.032,950.14 942.511,948.15L955.192,944.892C959.425,943.842 963.629,942.62 967.836,941.418C976.27,939.117 984.619,936.392 992.987,933.776C1001.29,930.891 1009.63,928.145 1017.84,924.901C1017.99,924.848 1018.13,924.788 1018.28,924.734C1022.75,928.768 1027.36,932.751 1032.14,936.655C1038.13,941.636 1044.44,946.4 1050.87,951.14C1057.37,955.791 1064.01,960.406 1070.91,964.758C1072.61,965.878 1074.35,966.94 1076.1,968.009C1077.85,969.068 1079.58,970.177 1081.35,971.2C1084.9,973.23 1088.46,975.268 1092.03,977.311C1095.58,979.41 1099.25,981.278 1102.91,983.188L1108.4,986.056C1110.24,987.013 1112.06,987.988 1113.94,988.849C1117.68,990.627 1121.42,992.407 1125.16,994.188L1127.97,995.519L1130.82,996.755L1136.52,999.226C1144.08,1002.63 1151.83,1005.52 1159.49,1008.58C1163.34,1010.03 1167.23,1011.37 1171.09,1012.77C1173.02,1013.46 1174.95,1014.15 1176.87,1014.84C1178.81,1015.48 1180.75,1016.11 1182.69,1016.75C1186.57,1018 1190.43,1019.26 1194.29,1020.5C1198.17,1021.65 1202.03,1022.78 1205.88,1023.92C1207.8,1024.47 1209.72,1025.07 1211.64,1025.59C1213.57,1026.1 1215.49,1026.62 1217.41,1027.13C1221.25,1028.14 1225.06,1029.18 1228.86,1030.15C1232.67,1031.06 1236.46,1031.97 1240.22,1032.87C1242.11,1033.32 1243.98,1033.79 1245.85,1034.21C1247.73,1034.61 1249.6,1035.01 1251.46,1035.42C1255.19,1036.22 1258.88,1037.02 1262.55,1037.81C1266.23,1038.52 1269.87,1039.22 1273.49,1039.92C1280.71,1041.39 1287.83,1042.5 1294.78,1043.74C1322.61,1048.4 1348.01,1051.34 1369.48,1053.51C1372.16,1053.82 1374.78,1054.07 1377.34,1054.28C1379.91,1054.51 1382.4,1054.73 1384.83,1054.94C1389.7,1055.36 1394.29,1055.76 1398.59,1056.13C1407.2,1056.74 1414.65,1057.26 1420.75,1057.69C1432.96,1058.35 1439.79,1058.71 1439.79,1058.71C1439.79,1058.71 1441.91,1058.79 1445.79,1058.94C1449.68,1059.01 1455.33,1059.12 1462.38,1059.25C1476.49,1059.51 1496.22,1059.38 1518.66,1058.71C1541.11,1057.87 1566.26,1056.31 1591.2,1053.84C1616.12,1051.29 1640.8,1047.83 1662.37,1044.02C1666.99,1043.18 1671.45,1042.33 1675.75,1041.46L1674.41,1043.64C1673.79,1044.65 1673.25,1045.68 1672.67,1046.7L1669.24,1052.83L1667.53,1055.9C1666.97,1056.93 1666.47,1057.97 1665.94,1059.01C1657.23,1075.5 1650.24,1092.54 1643.9,1109.73C1642.3,1113.93 1640.59,1118.43 1638.78,1123.18C1637.83,1125.54 1637.09,1128.03 1636.24,1130.55C1635.4,1133.08 1634.55,1135.67 1633.68,1138.31C1632.82,1140.95 1631.93,1143.65 1631.03,1146.4C1630.56,1147.77 1630.17,1149.17 1629.78,1150.58C1629.38,1151.99 1628.99,1153.41 1628.58,1154.84C1626.99,1160.58 1625.34,1166.5 1623.66,1172.55C1622.19,1178.65 1620.78,1184.89 1619.31,1191.23C1618.59,1194.4 1617.86,1197.6 1617.13,1200.81C1616.53,1204.05 1615.93,1207.3 1615.33,1210.57C1614.14,1217.1 1612.94,1223.69 1611.73,1230.3C1610.82,1236.93 1609.9,1243.58 1608.99,1250.2C1608.55,1253.51 1608.1,1256.82 1607.66,1260.11L1607.33,1262.58L1607.29,1262.88L1607.25,1263.19C1607.21,1263.59 1607.18,1263.99 1607.17,1264.4C1607.13,1265.21 1607.13,1266 1607.19,1266.83C1607.42,1270.35 1608.68,1274.15 1610.92,1277.28C1613.11,1280.37 1616,1282.65 1619.07,1284.08C1622.14,1285.49 1625.49,1286.17 1629.03,1285.97C1632.54,1285.78 1636.4,1284.54 1639.56,1282.31C1642.83,1280.04 1645,1277.12 1646.36,1274.31L1646.93,1273.16L1647.93,1271.09C1649.26,1268.34 1650.59,1265.6 1651.91,1262.88C1653.26,1260.18 1654.7,1257.54 1656.07,1254.9C1656.75,1253.58 1657.44,1252.26 1658.12,1250.95C1658.8,1249.64 1659.56,1248.38 1660.26,1247.1C1661.69,1244.56 1663.11,1242.04 1664.51,1239.55C1665.92,1237.06 1667.43,1234.67 1668.84,1232.28C1669.56,1231.09 1670.27,1229.9 1670.97,1228.73C1671.32,1228.14 1671.67,1227.55 1672.02,1226.97C1672.39,1226.4 1672.75,1225.83 1673.12,1225.26C1684.58,1206.97 1695.7,1191.91 1703.49,1181.12C1705.59,1178.67 1707.97,1175.89 1710.58,1172.84C1713.26,1169.84 1716.29,1166.65 1719.48,1163.22C1722.72,1159.83 1726.31,1156.36 1729.99,1152.66C1731.91,1150.88 1733.86,1149.06 1735.85,1147.2C1737.85,1145.36 1739.84,1143.43 1741.98,1141.61C1758.82,1126.7 1778.92,1111.46 1798.95,1099.17C1818.9,1086.73 1838.48,1076.92 1853.13,1070.6C1860.5,1067.51 1866.48,1064.94 1870.73,1063.42C1874.96,1061.82 1877.32,1060.93 1877.32,1060.93C1877.32,1060.93 1878.03,1060.61 1879.37,1060.08C1880.7,1059.56 1882.64,1058.8 1885.07,1057.86C1886.28,1057.38 1887.61,1056.85 1889.05,1056.28C1889.76,1055.99 1890.51,1055.69 1891.28,1055.38C1892.05,1055.1 1892.85,1054.81 1893.68,1054.5C1896.97,1053.28 1900.62,1051.92 1904.52,1050.48C1908.45,1049.14 1912.61,1047.68 1916.89,1046.15C1921.21,1044.78 1925.64,1043.3 1930.06,1041.82C1934.52,1040.48 1938.96,1039.04 1943.27,1037.66C1947.61,1036.39 1951.8,1035.08 1955.73,1033.76C1959.69,1032.58 1963.37,1031.38 1966.65,1030.16C1968.28,1029.55 1969.83,1028.97 1971.26,1028.43C1972.69,1027.88 1974,1027.32 1975.18,1026.76C1979.87,1024.51 1982.42,1022.21 1981.61,1019.97C1981.23,1018.9 1980.08,1017.85 1978.04,1016.81Z" style="fill-rule:nonzero;"/>
        </g>
        <g transform="matrix(1,0,0,1,-7.40026,8.40246)">
            <rect x="509.009" y="534.817" width="139.611" height="27.519" style="fill:white;"/>
        </g>
    </g>
</svg>
